G04 #@! TF.FileFunction,Legend,Bot*
%FSLAX46Y46*%
G04 Gerber Fmt 4.6, Leading zero omitted, Abs format (unit mm)*
G04 Created by KiCad (PCBNEW 4.0.7-e2-6376~58~ubuntu14.04.1) date Mon Sep 18 21:36:43 2017*
%MOMM*%
%LPD*%
G01*
G04 APERTURE LIST*
%ADD10C,0.100000*%
%ADD11C,0.127000*%
%ADD12C,0.120000*%
%ADD13C,0.050000*%
%ADD14C,0.150000*%
G04 APERTURE END LIST*
D10*
D11*
X241455000Y-85010000D02*
X241455000Y-87710000D01*
X241455000Y-87710000D02*
X245055000Y-87710000D01*
X245055000Y-85460000D02*
X245055000Y-87710000D01*
X241455000Y-85010000D02*
X244605000Y-85010000D01*
X245055000Y-85460000D02*
X244605000Y-85010000D01*
X241455000Y-102155000D02*
X241455000Y-104855000D01*
X241455000Y-104855000D02*
X245055000Y-104855000D01*
X245055000Y-102605000D02*
X245055000Y-104855000D01*
X241455000Y-102155000D02*
X244605000Y-102155000D01*
X245055000Y-102605000D02*
X244605000Y-102155000D01*
X241455000Y-118665000D02*
X241455000Y-121365000D01*
X241455000Y-121365000D02*
X245055000Y-121365000D01*
X245055000Y-119115000D02*
X245055000Y-121365000D01*
X241455000Y-118665000D02*
X244605000Y-118665000D01*
X245055000Y-119115000D02*
X244605000Y-118665000D01*
X241455000Y-135175000D02*
X241455000Y-137875000D01*
X241455000Y-137875000D02*
X245055000Y-137875000D01*
X245055000Y-135625000D02*
X245055000Y-137875000D01*
X241455000Y-135175000D02*
X244605000Y-135175000D01*
X245055000Y-135625000D02*
X244605000Y-135175000D01*
X241455000Y-68500000D02*
X241455000Y-71200000D01*
X241455000Y-71200000D02*
X245055000Y-71200000D01*
X245055000Y-68950000D02*
X245055000Y-71200000D01*
X241455000Y-68500000D02*
X244605000Y-68500000D01*
X245055000Y-68950000D02*
X244605000Y-68500000D01*
X241455000Y-51990000D02*
X241455000Y-54690000D01*
X241455000Y-54690000D02*
X245055000Y-54690000D01*
X245055000Y-52440000D02*
X245055000Y-54690000D01*
X241455000Y-51990000D02*
X244605000Y-51990000D01*
X245055000Y-52440000D02*
X244605000Y-51990000D01*
D12*
X242935000Y-46780000D02*
X240935000Y-46780000D01*
X240935000Y-49740000D02*
X242935000Y-49740000D01*
X239605000Y-54340000D02*
X239605000Y-52340000D01*
X236645000Y-52340000D02*
X236645000Y-54340000D01*
X242935000Y-56940000D02*
X240935000Y-56940000D01*
X240935000Y-59900000D02*
X242935000Y-59900000D01*
X242935000Y-63290000D02*
X240935000Y-63290000D01*
X240935000Y-66250000D02*
X242935000Y-66250000D01*
X239605000Y-70850000D02*
X239605000Y-68850000D01*
X236645000Y-68850000D02*
X236645000Y-70850000D01*
X242935000Y-73450000D02*
X240935000Y-73450000D01*
X240935000Y-76410000D02*
X242935000Y-76410000D01*
X242935000Y-79800000D02*
X240935000Y-79800000D01*
X240935000Y-82760000D02*
X242935000Y-82760000D01*
X239605000Y-87360000D02*
X239605000Y-85360000D01*
X236645000Y-85360000D02*
X236645000Y-87360000D01*
X242935000Y-89960000D02*
X240935000Y-89960000D01*
X240935000Y-92920000D02*
X242935000Y-92920000D01*
X242935000Y-96945000D02*
X240935000Y-96945000D01*
X240935000Y-99905000D02*
X242935000Y-99905000D01*
X239605000Y-104505000D02*
X239605000Y-102505000D01*
X236645000Y-102505000D02*
X236645000Y-104505000D01*
X242935000Y-107105000D02*
X240935000Y-107105000D01*
X240935000Y-110065000D02*
X242935000Y-110065000D01*
X242935000Y-113455000D02*
X240935000Y-113455000D01*
X240935000Y-116415000D02*
X242935000Y-116415000D01*
X239605000Y-121015000D02*
X239605000Y-119015000D01*
X236645000Y-119015000D02*
X236645000Y-121015000D01*
X242935000Y-123615000D02*
X240935000Y-123615000D01*
X240935000Y-126575000D02*
X242935000Y-126575000D01*
X242935000Y-129965000D02*
X240935000Y-129965000D01*
X240935000Y-132925000D02*
X242935000Y-132925000D01*
X239605000Y-137525000D02*
X239605000Y-135525000D01*
X236645000Y-135525000D02*
X236645000Y-137525000D01*
X242935000Y-140125000D02*
X240935000Y-140125000D01*
X240935000Y-143085000D02*
X242935000Y-143085000D01*
X67520000Y-94000000D02*
X67520000Y-96000000D01*
X70480000Y-96000000D02*
X70480000Y-94000000D01*
D13*
X242657381Y-85674286D02*
X243466905Y-85674286D01*
X243562143Y-85717143D01*
X243609762Y-85760000D01*
X243657381Y-85845714D01*
X243657381Y-86017143D01*
X243609762Y-86102857D01*
X243562143Y-86145714D01*
X243466905Y-86188571D01*
X242657381Y-86188571D01*
X242657381Y-87045714D02*
X242657381Y-86617143D01*
X243133571Y-86574286D01*
X243085952Y-86617143D01*
X243038333Y-86702857D01*
X243038333Y-86917143D01*
X243085952Y-87002857D01*
X243133571Y-87045714D01*
X243228810Y-87088571D01*
X243466905Y-87088571D01*
X243562143Y-87045714D01*
X243609762Y-87002857D01*
X243657381Y-86917143D01*
X243657381Y-86702857D01*
X243609762Y-86617143D01*
X243562143Y-86574286D01*
X242657381Y-102819286D02*
X243466905Y-102819286D01*
X243562143Y-102862143D01*
X243609762Y-102905000D01*
X243657381Y-102990714D01*
X243657381Y-103162143D01*
X243609762Y-103247857D01*
X243562143Y-103290714D01*
X243466905Y-103333571D01*
X242657381Y-103333571D01*
X242657381Y-104147857D02*
X242657381Y-103976428D01*
X242705000Y-103890714D01*
X242752619Y-103847857D01*
X242895476Y-103762143D01*
X243085952Y-103719286D01*
X243466905Y-103719286D01*
X243562143Y-103762143D01*
X243609762Y-103805000D01*
X243657381Y-103890714D01*
X243657381Y-104062143D01*
X243609762Y-104147857D01*
X243562143Y-104190714D01*
X243466905Y-104233571D01*
X243228810Y-104233571D01*
X243133571Y-104190714D01*
X243085952Y-104147857D01*
X243038333Y-104062143D01*
X243038333Y-103890714D01*
X243085952Y-103805000D01*
X243133571Y-103762143D01*
X243228810Y-103719286D01*
X242657381Y-119329286D02*
X243466905Y-119329286D01*
X243562143Y-119372143D01*
X243609762Y-119415000D01*
X243657381Y-119500714D01*
X243657381Y-119672143D01*
X243609762Y-119757857D01*
X243562143Y-119800714D01*
X243466905Y-119843571D01*
X242657381Y-119843571D01*
X242657381Y-120186428D02*
X242657381Y-120786428D01*
X243657381Y-120400714D01*
X242657381Y-135839286D02*
X243466905Y-135839286D01*
X243562143Y-135882143D01*
X243609762Y-135925000D01*
X243657381Y-136010714D01*
X243657381Y-136182143D01*
X243609762Y-136267857D01*
X243562143Y-136310714D01*
X243466905Y-136353571D01*
X242657381Y-136353571D01*
X243085952Y-136910714D02*
X243038333Y-136825000D01*
X242990714Y-136782143D01*
X242895476Y-136739286D01*
X242847857Y-136739286D01*
X242752619Y-136782143D01*
X242705000Y-136825000D01*
X242657381Y-136910714D01*
X242657381Y-137082143D01*
X242705000Y-137167857D01*
X242752619Y-137210714D01*
X242847857Y-137253571D01*
X242895476Y-137253571D01*
X242990714Y-137210714D01*
X243038333Y-137167857D01*
X243085952Y-137082143D01*
X243085952Y-136910714D01*
X243133571Y-136825000D01*
X243181190Y-136782143D01*
X243276429Y-136739286D01*
X243466905Y-136739286D01*
X243562143Y-136782143D01*
X243609762Y-136825000D01*
X243657381Y-136910714D01*
X243657381Y-137082143D01*
X243609762Y-137167857D01*
X243562143Y-137210714D01*
X243466905Y-137253571D01*
X243276429Y-137253571D01*
X243181190Y-137210714D01*
X243133571Y-137167857D01*
X243085952Y-137082143D01*
X242657381Y-69164286D02*
X243466905Y-69164286D01*
X243562143Y-69207143D01*
X243609762Y-69250000D01*
X243657381Y-69335714D01*
X243657381Y-69507143D01*
X243609762Y-69592857D01*
X243562143Y-69635714D01*
X243466905Y-69678571D01*
X242657381Y-69678571D01*
X242990714Y-70492857D02*
X243657381Y-70492857D01*
X242609762Y-70278571D02*
X243324048Y-70064286D01*
X243324048Y-70621428D01*
X242657381Y-52654286D02*
X243466905Y-52654286D01*
X243562143Y-52697143D01*
X243609762Y-52740000D01*
X243657381Y-52825714D01*
X243657381Y-52997143D01*
X243609762Y-53082857D01*
X243562143Y-53125714D01*
X243466905Y-53168571D01*
X242657381Y-53168571D01*
X242657381Y-53511428D02*
X242657381Y-54068571D01*
X243038333Y-53768571D01*
X243038333Y-53897143D01*
X243085952Y-53982857D01*
X243133571Y-54025714D01*
X243228810Y-54068571D01*
X243466905Y-54068571D01*
X243562143Y-54025714D01*
X243609762Y-53982857D01*
X243657381Y-53897143D01*
X243657381Y-53640000D01*
X243609762Y-53554286D01*
X243562143Y-53511428D01*
D14*
X71752381Y-94357143D02*
X71276190Y-94023809D01*
X71752381Y-93785714D02*
X70752381Y-93785714D01*
X70752381Y-94166667D01*
X70800000Y-94261905D01*
X70847619Y-94309524D01*
X70942857Y-94357143D01*
X71085714Y-94357143D01*
X71180952Y-94309524D01*
X71228571Y-94261905D01*
X71276190Y-94166667D01*
X71276190Y-93785714D01*
X70847619Y-94738095D02*
X70800000Y-94785714D01*
X70752381Y-94880952D01*
X70752381Y-95119048D01*
X70800000Y-95214286D01*
X70847619Y-95261905D01*
X70942857Y-95309524D01*
X71038095Y-95309524D01*
X71180952Y-95261905D01*
X71752381Y-94690476D01*
X71752381Y-95309524D01*
X70752381Y-96214286D02*
X70752381Y-95738095D01*
X71228571Y-95690476D01*
X71180952Y-95738095D01*
X71133333Y-95833333D01*
X71133333Y-96071429D01*
X71180952Y-96166667D01*
X71228571Y-96214286D01*
X71323810Y-96261905D01*
X71561905Y-96261905D01*
X71657143Y-96214286D01*
X71704762Y-96166667D01*
X71752381Y-96071429D01*
X71752381Y-95833333D01*
X71704762Y-95738095D01*
X71657143Y-95690476D01*
M02*
