G04 #@! TF.FileFunction,Legend,Top*
%FSLAX46Y46*%
G04 Gerber Fmt 4.6, Leading zero omitted, Abs format (unit mm)*
G04 Created by KiCad (PCBNEW 4.0.7-e2-6376~58~ubuntu14.04.1) date Mon Sep 18 21:36:43 2017*
%MOMM*%
%LPD*%
G01*
G04 APERTURE LIST*
%ADD10C,0.100000*%
%ADD11C,0.120000*%
%ADD12C,0.127000*%
%ADD13C,0.150000*%
%ADD14C,0.050000*%
G04 APERTURE END LIST*
D10*
D11*
X162190000Y-68810000D02*
X159510000Y-68810000D01*
X153810000Y-68810000D02*
X156490000Y-68810000D01*
X154570000Y-77190000D02*
X156490000Y-77190000D01*
X161430000Y-77190000D02*
X159510000Y-77190000D01*
X162190000Y-68810000D02*
X162190000Y-76430000D01*
X162190000Y-76430000D02*
X161430000Y-77190000D01*
X154570000Y-77190000D02*
X153810000Y-76430000D01*
X153810000Y-76430000D02*
X153810000Y-68810000D01*
X148050000Y-114100000D02*
X149950000Y-114100000D01*
X149950000Y-114100000D02*
X149950000Y-109400000D01*
X148050000Y-114100000D02*
X148050000Y-109400000D01*
X151050000Y-114100000D02*
X152950000Y-114100000D01*
X152950000Y-114100000D02*
X152950000Y-109400000D01*
X151050000Y-114100000D02*
X151050000Y-109400000D01*
X148300000Y-67350000D02*
X135700000Y-67350000D01*
X135700000Y-67350000D02*
X135700000Y-77700000D01*
X135700000Y-77700000D02*
X136650000Y-77700000D01*
X136650000Y-77700000D02*
X136400000Y-78200000D01*
X136400000Y-78200000D02*
X138300000Y-78200000D01*
X138300000Y-78200000D02*
X138350000Y-78200000D01*
X138350000Y-78200000D02*
X138100000Y-77700000D01*
X138100000Y-77700000D02*
X143500000Y-77700000D01*
X143500000Y-77700000D02*
X143200000Y-78200000D01*
X143200000Y-78200000D02*
X148300000Y-78200000D01*
X148300000Y-78200000D02*
X148300000Y-67350000D01*
X62340000Y-108662000D02*
X62340000Y-96062000D01*
X62340000Y-96062000D02*
X51990000Y-96062000D01*
X51990000Y-96062000D02*
X51990000Y-97012000D01*
X51990000Y-97012000D02*
X51490000Y-96762000D01*
X51490000Y-96762000D02*
X51490000Y-98662000D01*
X51490000Y-98662000D02*
X51490000Y-98712000D01*
X51490000Y-98712000D02*
X51990000Y-98462000D01*
X51990000Y-98462000D02*
X51990000Y-103862000D01*
X51990000Y-103862000D02*
X51490000Y-103562000D01*
X51490000Y-103562000D02*
X51490000Y-108662000D01*
X51490000Y-108662000D02*
X62340000Y-108662000D01*
X51452000Y-81330000D02*
X51452000Y-93930000D01*
X51452000Y-93930000D02*
X61802000Y-93930000D01*
X61802000Y-93930000D02*
X61802000Y-92980000D01*
X61802000Y-92980000D02*
X62302000Y-93230000D01*
X62302000Y-93230000D02*
X62302000Y-91330000D01*
X62302000Y-91330000D02*
X62302000Y-91280000D01*
X62302000Y-91280000D02*
X61802000Y-91530000D01*
X61802000Y-91530000D02*
X61802000Y-86130000D01*
X61802000Y-86130000D02*
X62302000Y-86430000D01*
X62302000Y-86430000D02*
X62302000Y-81330000D01*
X62302000Y-81330000D02*
X51452000Y-81330000D01*
X153670000Y-118932000D02*
X161350000Y-118932000D01*
X161350000Y-118932000D02*
X161350000Y-116272000D01*
X161350000Y-116272000D02*
X153670000Y-116272000D01*
X153670000Y-116272000D02*
X153670000Y-118932000D01*
X152400000Y-118932000D02*
X151070000Y-118932000D01*
X151070000Y-118932000D02*
X151070000Y-117602000D01*
X177800000Y-108652000D02*
X159960000Y-108652000D01*
X159960000Y-108652000D02*
X159960000Y-111312000D01*
X159960000Y-111312000D02*
X177800000Y-111312000D01*
X177800000Y-111312000D02*
X177800000Y-108652000D01*
X179070000Y-108652000D02*
X180400000Y-108652000D01*
X180400000Y-108652000D02*
X180400000Y-109982000D01*
X177740000Y-87376000D02*
X177740000Y-105216000D01*
X177740000Y-105216000D02*
X180400000Y-105216000D01*
X180400000Y-105216000D02*
X180400000Y-87376000D01*
X180400000Y-87376000D02*
X177740000Y-87376000D01*
X177740000Y-86106000D02*
X177740000Y-84776000D01*
X177740000Y-84776000D02*
X179070000Y-84776000D01*
X231080000Y-87376000D02*
X231080000Y-105216000D01*
X231080000Y-105216000D02*
X233740000Y-105216000D01*
X233740000Y-105216000D02*
X233740000Y-87376000D01*
X233740000Y-87376000D02*
X231080000Y-87376000D01*
X231080000Y-86106000D02*
X231080000Y-84776000D01*
X231080000Y-84776000D02*
X232410000Y-84776000D01*
X147812000Y-84030000D02*
X145812000Y-84030000D01*
X145812000Y-81070000D02*
X147812000Y-81070000D01*
X140446000Y-84030000D02*
X138446000Y-84030000D01*
X138446000Y-81070000D02*
X140446000Y-81070000D01*
X142792000Y-111744000D02*
X142792000Y-109744000D01*
X145752000Y-109744000D02*
X145752000Y-111744000D01*
X154984000Y-111744000D02*
X154984000Y-109744000D01*
X157944000Y-109744000D02*
X157944000Y-111744000D01*
X133520000Y-131000000D02*
X133520000Y-129000000D01*
X136480000Y-129000000D02*
X136480000Y-131000000D01*
X131520000Y-121000000D02*
X131520000Y-119000000D01*
X134480000Y-119000000D02*
X134480000Y-121000000D01*
X138684000Y-116078000D02*
X146304000Y-116078000D01*
X146304000Y-116078000D02*
X146304000Y-116378000D01*
X146304000Y-123698000D02*
X138684000Y-123698000D01*
X138684000Y-116078000D02*
X138684000Y-116378000D01*
X146304000Y-118318000D02*
X146304000Y-121458000D01*
X138684000Y-118318000D02*
X138684000Y-121458000D01*
X146304000Y-123398000D02*
X146304000Y-123698000D01*
X138684000Y-123398000D02*
X138684000Y-123698000D01*
X145034000Y-119888000D02*
G75*
G03X145034000Y-119888000I-2540000J0D01*
G01*
X138684000Y-125730000D02*
X146304000Y-125730000D01*
X146304000Y-125730000D02*
X146304000Y-126030000D01*
X146304000Y-133350000D02*
X138684000Y-133350000D01*
X138684000Y-125730000D02*
X138684000Y-126030000D01*
X146304000Y-127970000D02*
X146304000Y-131110000D01*
X138684000Y-127970000D02*
X138684000Y-131110000D01*
X146304000Y-133050000D02*
X146304000Y-133350000D01*
X138684000Y-133050000D02*
X138684000Y-133350000D01*
X145034000Y-129540000D02*
G75*
G03X145034000Y-129540000I-2540000J0D01*
G01*
D12*
X127635000Y-104521000D02*
X127635000Y-85979000D01*
X127635000Y-85979000D02*
X170815000Y-85979000D01*
X170815000Y-85979000D02*
X170815000Y-99150000D01*
X170815000Y-99150000D02*
X170815000Y-104521000D01*
X170815000Y-104521000D02*
X127635000Y-104521000D01*
X172815000Y-99150000D02*
X172815000Y-91350000D01*
X172815000Y-99150000D02*
X170815000Y-99150000D01*
X172825000Y-91350000D02*
X170825000Y-91350000D01*
D11*
X70342000Y-104006000D02*
X71712000Y-104006000D01*
X71712000Y-104006000D02*
X71712000Y-85986000D01*
X71712000Y-85986000D02*
X66972000Y-85986000D01*
X66972000Y-85986000D02*
X66972000Y-104006000D01*
X66972000Y-104006000D02*
X68342000Y-104006000D01*
X74542000Y-104006000D02*
X74542000Y-85986000D01*
X74542000Y-85986000D02*
X64142000Y-85986000D01*
X64142000Y-85986000D02*
X64142000Y-104006000D01*
X64142000Y-104006000D02*
X74542000Y-104006000D01*
X68342000Y-104006000D02*
G75*
G02X70342000Y-104006000I1000000J0D01*
G01*
X160528000Y-81220000D02*
X152848000Y-81220000D01*
X152848000Y-81220000D02*
X152848000Y-83880000D01*
X152848000Y-83880000D02*
X160528000Y-83880000D01*
X160528000Y-83880000D02*
X160528000Y-81220000D01*
X161798000Y-81220000D02*
X163128000Y-81220000D01*
X163128000Y-81220000D02*
X163128000Y-82550000D01*
X132270000Y-111330000D02*
X139950000Y-111330000D01*
X139950000Y-111330000D02*
X139950000Y-108670000D01*
X139950000Y-108670000D02*
X132270000Y-108670000D01*
X132270000Y-108670000D02*
X132270000Y-111330000D01*
X131000000Y-111330000D02*
X129670000Y-111330000D01*
X129670000Y-111330000D02*
X129670000Y-110000000D01*
X139270000Y-63330000D02*
X144410000Y-63330000D01*
X144410000Y-63330000D02*
X144410000Y-60670000D01*
X144410000Y-60670000D02*
X139270000Y-60670000D01*
X139270000Y-60670000D02*
X139270000Y-63330000D01*
X138000000Y-63330000D02*
X136670000Y-63330000D01*
X136670000Y-63330000D02*
X136670000Y-62000000D01*
D13*
X163807143Y-73166666D02*
X163854762Y-73214285D01*
X163902381Y-73357142D01*
X163902381Y-73452380D01*
X163854762Y-73595238D01*
X163759524Y-73690476D01*
X163664286Y-73738095D01*
X163473810Y-73785714D01*
X163330952Y-73785714D01*
X163140476Y-73738095D01*
X163045238Y-73690476D01*
X162950000Y-73595238D01*
X162902381Y-73452380D01*
X162902381Y-73357142D01*
X162950000Y-73214285D01*
X162997619Y-73166666D01*
X163902381Y-72214285D02*
X163902381Y-72785714D01*
X163902381Y-72500000D02*
X162902381Y-72500000D01*
X163045238Y-72595238D01*
X163140476Y-72690476D01*
X163188095Y-72785714D01*
X161971429Y-78160952D02*
X161971429Y-77399047D01*
X162352381Y-77779999D02*
X161590476Y-77779999D01*
X148442381Y-68413333D02*
X149156667Y-68413333D01*
X149299524Y-68460953D01*
X149394762Y-68556191D01*
X149442381Y-68699048D01*
X149442381Y-68794286D01*
X149442381Y-67413333D02*
X149442381Y-67984762D01*
X149442381Y-67699048D02*
X148442381Y-67699048D01*
X148585238Y-67794286D01*
X148680476Y-67889524D01*
X148728095Y-67984762D01*
X61276667Y-108804381D02*
X61276667Y-109518667D01*
X61229047Y-109661524D01*
X61133809Y-109756762D01*
X60990952Y-109804381D01*
X60895714Y-109804381D01*
X61657619Y-108804381D02*
X62276667Y-108804381D01*
X61943333Y-109185333D01*
X62086191Y-109185333D01*
X62181429Y-109232952D01*
X62229048Y-109280571D01*
X62276667Y-109375810D01*
X62276667Y-109613905D01*
X62229048Y-109709143D01*
X62181429Y-109756762D01*
X62086191Y-109804381D01*
X61800476Y-109804381D01*
X61705238Y-109756762D01*
X61657619Y-109709143D01*
X51848667Y-80092381D02*
X51848667Y-80806667D01*
X51801047Y-80949524D01*
X51705809Y-81044762D01*
X51562952Y-81092381D01*
X51467714Y-81092381D01*
X52753429Y-80425714D02*
X52753429Y-81092381D01*
X52515333Y-80044762D02*
X52277238Y-80759048D01*
X52896286Y-80759048D01*
X162266381Y-117935333D02*
X162980667Y-117935333D01*
X163123524Y-117982953D01*
X163218762Y-118078191D01*
X163266381Y-118221048D01*
X163266381Y-118316286D01*
X162266381Y-117030571D02*
X162266381Y-117221048D01*
X162314000Y-117316286D01*
X162361619Y-117363905D01*
X162504476Y-117459143D01*
X162694952Y-117506762D01*
X163075905Y-117506762D01*
X163171143Y-117459143D01*
X163218762Y-117411524D01*
X163266381Y-117316286D01*
X163266381Y-117125809D01*
X163218762Y-117030571D01*
X163171143Y-116982952D01*
X163075905Y-116935333D01*
X162837810Y-116935333D01*
X162742571Y-116982952D01*
X162694952Y-117030571D01*
X162647333Y-117125809D01*
X162647333Y-117316286D01*
X162694952Y-117411524D01*
X162742571Y-117459143D01*
X162837810Y-117506762D01*
X180852381Y-110315333D02*
X181566667Y-110315333D01*
X181709524Y-110362953D01*
X181804762Y-110458191D01*
X181852381Y-110601048D01*
X181852381Y-110696286D01*
X180852381Y-109934381D02*
X180852381Y-109267714D01*
X181852381Y-109696286D01*
X178736667Y-83228381D02*
X178736667Y-83942667D01*
X178689047Y-84085524D01*
X178593809Y-84180762D01*
X178450952Y-84228381D01*
X178355714Y-84228381D01*
X179355714Y-83656952D02*
X179260476Y-83609333D01*
X179212857Y-83561714D01*
X179165238Y-83466476D01*
X179165238Y-83418857D01*
X179212857Y-83323619D01*
X179260476Y-83276000D01*
X179355714Y-83228381D01*
X179546191Y-83228381D01*
X179641429Y-83276000D01*
X179689048Y-83323619D01*
X179736667Y-83418857D01*
X179736667Y-83466476D01*
X179689048Y-83561714D01*
X179641429Y-83609333D01*
X179546191Y-83656952D01*
X179355714Y-83656952D01*
X179260476Y-83704571D01*
X179212857Y-83752190D01*
X179165238Y-83847429D01*
X179165238Y-84037905D01*
X179212857Y-84133143D01*
X179260476Y-84180762D01*
X179355714Y-84228381D01*
X179546191Y-84228381D01*
X179641429Y-84180762D01*
X179689048Y-84133143D01*
X179736667Y-84037905D01*
X179736667Y-83847429D01*
X179689048Y-83752190D01*
X179641429Y-83704571D01*
X179546191Y-83656952D01*
X232076667Y-83228381D02*
X232076667Y-83942667D01*
X232029047Y-84085524D01*
X231933809Y-84180762D01*
X231790952Y-84228381D01*
X231695714Y-84228381D01*
X232600476Y-84228381D02*
X232790952Y-84228381D01*
X232886191Y-84180762D01*
X232933810Y-84133143D01*
X233029048Y-83990286D01*
X233076667Y-83799810D01*
X233076667Y-83418857D01*
X233029048Y-83323619D01*
X232981429Y-83276000D01*
X232886191Y-83228381D01*
X232695714Y-83228381D01*
X232600476Y-83276000D01*
X232552857Y-83323619D01*
X232505238Y-83418857D01*
X232505238Y-83656952D01*
X232552857Y-83752190D01*
X232600476Y-83799810D01*
X232695714Y-83847429D01*
X232886191Y-83847429D01*
X232981429Y-83799810D01*
X233029048Y-83752190D01*
X233076667Y-83656952D01*
D14*
X168238095Y-95452381D02*
X168238095Y-96261905D01*
X168285714Y-96357143D01*
X168333333Y-96404762D01*
X168428571Y-96452381D01*
X168619048Y-96452381D01*
X168714286Y-96404762D01*
X168761905Y-96357143D01*
X168809524Y-96261905D01*
X168809524Y-95452381D01*
X169809524Y-96452381D02*
X169238095Y-96452381D01*
X169523809Y-96452381D02*
X169523809Y-95452381D01*
X169428571Y-95595238D01*
X169333333Y-95690476D01*
X169238095Y-95738095D01*
X128056190Y-94146667D02*
X128532381Y-94146667D01*
X127960952Y-94432381D02*
X128294285Y-93432381D01*
X128627619Y-94432381D01*
X128960952Y-94432381D02*
X128960952Y-93765714D01*
X128960952Y-93956190D02*
X129008571Y-93860952D01*
X129056190Y-93813333D01*
X129151428Y-93765714D01*
X129246667Y-93765714D01*
X130008572Y-93765714D02*
X130008572Y-94432381D01*
X129580000Y-93765714D02*
X129580000Y-94289524D01*
X129627619Y-94384762D01*
X129722857Y-94432381D01*
X129865715Y-94432381D01*
X129960953Y-94384762D01*
X130008572Y-94337143D01*
X130484762Y-94432381D02*
X130484762Y-93765714D01*
X130484762Y-93432381D02*
X130437143Y-93480000D01*
X130484762Y-93527619D01*
X130532381Y-93480000D01*
X130484762Y-93432381D01*
X130484762Y-93527619D01*
X130960952Y-93765714D02*
X130960952Y-94432381D01*
X130960952Y-93860952D02*
X131008571Y-93813333D01*
X131103809Y-93765714D01*
X131246667Y-93765714D01*
X131341905Y-93813333D01*
X131389524Y-93908571D01*
X131389524Y-94432381D01*
X132008571Y-94432381D02*
X131913333Y-94384762D01*
X131865714Y-94337143D01*
X131818095Y-94241905D01*
X131818095Y-93956190D01*
X131865714Y-93860952D01*
X131913333Y-93813333D01*
X132008571Y-93765714D01*
X132151429Y-93765714D01*
X132246667Y-93813333D01*
X132294286Y-93860952D01*
X132341905Y-93956190D01*
X132341905Y-94241905D01*
X132294286Y-94337143D01*
X132246667Y-94384762D01*
X132151429Y-94432381D01*
X132008571Y-94432381D01*
X132770476Y-94432381D02*
X132770476Y-93432381D01*
X133341905Y-94432381D01*
X133341905Y-93432381D01*
X134246667Y-94432381D02*
X134246667Y-93908571D01*
X134199048Y-93813333D01*
X134103810Y-93765714D01*
X133913333Y-93765714D01*
X133818095Y-93813333D01*
X134246667Y-94384762D02*
X134151429Y-94432381D01*
X133913333Y-94432381D01*
X133818095Y-94384762D01*
X133770476Y-94289524D01*
X133770476Y-94194286D01*
X133818095Y-94099048D01*
X133913333Y-94051429D01*
X134151429Y-94051429D01*
X134246667Y-94003810D01*
X134722857Y-93765714D02*
X134722857Y-94432381D01*
X134722857Y-93860952D02*
X134770476Y-93813333D01*
X134865714Y-93765714D01*
X135008572Y-93765714D01*
X135103810Y-93813333D01*
X135151429Y-93908571D01*
X135151429Y-94432381D01*
X135770476Y-94432381D02*
X135675238Y-94384762D01*
X135627619Y-94337143D01*
X135580000Y-94241905D01*
X135580000Y-93956190D01*
X135627619Y-93860952D01*
X135675238Y-93813333D01*
X135770476Y-93765714D01*
X135913334Y-93765714D01*
X136008572Y-93813333D01*
X136056191Y-93860952D01*
X136103810Y-93956190D01*
X136103810Y-94241905D01*
X136056191Y-94337143D01*
X136008572Y-94384762D01*
X135913334Y-94432381D01*
X135770476Y-94432381D01*
D13*
X68580095Y-104458381D02*
X68580095Y-105267905D01*
X68627714Y-105363143D01*
X68675333Y-105410762D01*
X68770571Y-105458381D01*
X68961048Y-105458381D01*
X69056286Y-105410762D01*
X69103905Y-105363143D01*
X69151524Y-105267905D01*
X69151524Y-104458381D01*
X69580095Y-104553619D02*
X69627714Y-104506000D01*
X69722952Y-104458381D01*
X69961048Y-104458381D01*
X70056286Y-104506000D01*
X70103905Y-104553619D01*
X70151524Y-104648857D01*
X70151524Y-104744095D01*
X70103905Y-104886952D01*
X69532476Y-105458381D01*
X70151524Y-105458381D01*
X163580381Y-82883333D02*
X164294667Y-82883333D01*
X164437524Y-82930953D01*
X164532762Y-83026191D01*
X164580381Y-83169048D01*
X164580381Y-83264286D01*
X163675619Y-82454762D02*
X163628000Y-82407143D01*
X163580381Y-82311905D01*
X163580381Y-82073809D01*
X163628000Y-81978571D01*
X163675619Y-81930952D01*
X163770857Y-81883333D01*
X163866095Y-81883333D01*
X164008952Y-81930952D01*
X164580381Y-82502381D01*
X164580381Y-81883333D01*
X128122381Y-110333333D02*
X128836667Y-110333333D01*
X128979524Y-110380953D01*
X129074762Y-110476191D01*
X129122381Y-110619048D01*
X129122381Y-110714286D01*
X128122381Y-109380952D02*
X128122381Y-109857143D01*
X128598571Y-109904762D01*
X128550952Y-109857143D01*
X128503333Y-109761905D01*
X128503333Y-109523809D01*
X128550952Y-109428571D01*
X128598571Y-109380952D01*
X128693810Y-109333333D01*
X128931905Y-109333333D01*
X129027143Y-109380952D01*
X129074762Y-109428571D01*
X129122381Y-109523809D01*
X129122381Y-109761905D01*
X129074762Y-109857143D01*
X129027143Y-109904762D01*
X136074762Y-63333333D02*
X136122381Y-63190476D01*
X136122381Y-62952380D01*
X136074762Y-62857142D01*
X136027143Y-62809523D01*
X135931905Y-62761904D01*
X135836667Y-62761904D01*
X135741429Y-62809523D01*
X135693810Y-62857142D01*
X135646190Y-62952380D01*
X135598571Y-63142857D01*
X135550952Y-63238095D01*
X135503333Y-63285714D01*
X135408095Y-63333333D01*
X135312857Y-63333333D01*
X135217619Y-63285714D01*
X135170000Y-63238095D01*
X135122381Y-63142857D01*
X135122381Y-62904761D01*
X135170000Y-62761904D01*
X135122381Y-62428571D02*
X136122381Y-62190476D01*
X135408095Y-61999999D01*
X136122381Y-61809523D01*
X135122381Y-61571428D01*
X136122381Y-60666666D02*
X136122381Y-61238095D01*
X136122381Y-60952381D02*
X135122381Y-60952381D01*
X135265238Y-61047619D01*
X135360476Y-61142857D01*
X135408095Y-61238095D01*
M02*
