G04 #@! TF.FileFunction,Profile,NP*
%FSLAX46Y46*%
G04 Gerber Fmt 4.6, Leading zero omitted, Abs format (unit mm)*
G04 Created by KiCad (PCBNEW 4.0.7-e2-6376~58~ubuntu14.04.1) date Mon Sep 18 21:36:43 2017*
%MOMM*%
%LPD*%
G01*
G04 APERTURE LIST*
%ADD10C,0.100000*%
%ADD11C,0.150000*%
G04 APERTURE END LIST*
D10*
D11*
X182880000Y-96266000D02*
X228600000Y-96266000D01*
X228600000Y-93726000D02*
X182880000Y-93726000D01*
X181610000Y-94996000D02*
G75*
G03X182880000Y-96266000I1270000J0D01*
G01*
X182880000Y-93726000D02*
G75*
G03X181610000Y-94996000I0J-1270000D01*
G01*
X228600000Y-96266000D02*
G75*
G03X229870000Y-94996000I0J1270000D01*
G01*
X229870000Y-94996000D02*
G75*
G03X228600000Y-93726000I-1270000J0D01*
G01*
X246000000Y-145000000D02*
X250000000Y-95000000D01*
X235000000Y-145000000D02*
X246000000Y-145000000D01*
X246000000Y-45000000D02*
X250000000Y-95000000D01*
X235000000Y-45000000D02*
X246000000Y-45000000D01*
X190000000Y-110000000D02*
X130000000Y-145000000D01*
X230000000Y-110000000D02*
X190000000Y-110000000D01*
X190000000Y-80000000D02*
X130000000Y-45000000D01*
X230000000Y-80000000D02*
X190000000Y-80000000D01*
X130000000Y-45000000D02*
X50000000Y-45000000D01*
X235000000Y-75000000D02*
X230000000Y-80000000D01*
X235000000Y-45000000D02*
X235000000Y-75000000D01*
X235000000Y-115000000D02*
X235000000Y-145000000D01*
X230000000Y-110000000D02*
X235000000Y-115000000D01*
X50000000Y-145000000D02*
X130000000Y-145000000D01*
X50000000Y-45000000D02*
X50000000Y-145000000D01*
M02*
