G04 #@! TF.FileFunction,Paste,Bot*
%FSLAX46Y46*%
G04 Gerber Fmt 4.6, Leading zero omitted, Abs format (unit mm)*
G04 Created by KiCad (PCBNEW 4.0.7-e2-6376~58~ubuntu14.04.1) date Tue Oct  3 22:56:20 2017*
%MOMM*%
%LPD*%
G01*
G04 APERTURE LIST*
%ADD10C,0.100000*%
%ADD11C,0.200000*%
%ADD12C,0.381000*%
%ADD13R,1.000000X1.100000*%
%ADD14R,2.000000X2.500000*%
%ADD15R,2.500000X2.000000*%
G04 APERTURE END LIST*
D10*
D11*
X250000000Y-95000000D02*
X50000000Y-95000000D01*
D12*
G36*
X241705000Y-83760000D02*
X241705000Y-84960000D01*
X242805000Y-84960000D01*
X242805000Y-83760000D01*
X241705000Y-83760000D01*
G37*
X241705000Y-83760000D02*
X241705000Y-84960000D01*
X242805000Y-84960000D01*
X242805000Y-83760000D01*
X241705000Y-83760000D01*
G36*
X243605000Y-83760000D02*
X243605000Y-84960000D01*
X244705000Y-84960000D01*
X244705000Y-83760000D01*
X243605000Y-83760000D01*
G37*
X243605000Y-83760000D02*
X243605000Y-84960000D01*
X244705000Y-84960000D01*
X244705000Y-83760000D01*
X243605000Y-83760000D01*
G36*
X243605000Y-87810000D02*
X243605000Y-89010000D01*
X244705000Y-89010000D01*
X244705000Y-87810000D01*
X243605000Y-87810000D01*
G37*
X243605000Y-87810000D02*
X243605000Y-89010000D01*
X244705000Y-89010000D01*
X244705000Y-87810000D01*
X243605000Y-87810000D01*
G36*
X241705000Y-87760000D02*
X241705000Y-89010000D01*
X242805000Y-89010000D01*
X242805000Y-87760000D01*
X241705000Y-87760000D01*
G37*
X241705000Y-87760000D02*
X241705000Y-89010000D01*
X242805000Y-89010000D01*
X242805000Y-87760000D01*
X241705000Y-87760000D01*
G36*
X241705000Y-100905000D02*
X241705000Y-102105000D01*
X242805000Y-102105000D01*
X242805000Y-100905000D01*
X241705000Y-100905000D01*
G37*
X241705000Y-100905000D02*
X241705000Y-102105000D01*
X242805000Y-102105000D01*
X242805000Y-100905000D01*
X241705000Y-100905000D01*
G36*
X243605000Y-100905000D02*
X243605000Y-102105000D01*
X244705000Y-102105000D01*
X244705000Y-100905000D01*
X243605000Y-100905000D01*
G37*
X243605000Y-100905000D02*
X243605000Y-102105000D01*
X244705000Y-102105000D01*
X244705000Y-100905000D01*
X243605000Y-100905000D01*
G36*
X243605000Y-104955000D02*
X243605000Y-106155000D01*
X244705000Y-106155000D01*
X244705000Y-104955000D01*
X243605000Y-104955000D01*
G37*
X243605000Y-104955000D02*
X243605000Y-106155000D01*
X244705000Y-106155000D01*
X244705000Y-104955000D01*
X243605000Y-104955000D01*
G36*
X241705000Y-104905000D02*
X241705000Y-106155000D01*
X242805000Y-106155000D01*
X242805000Y-104905000D01*
X241705000Y-104905000D01*
G37*
X241705000Y-104905000D02*
X241705000Y-106155000D01*
X242805000Y-106155000D01*
X242805000Y-104905000D01*
X241705000Y-104905000D01*
G36*
X241705000Y-117415000D02*
X241705000Y-118615000D01*
X242805000Y-118615000D01*
X242805000Y-117415000D01*
X241705000Y-117415000D01*
G37*
X241705000Y-117415000D02*
X241705000Y-118615000D01*
X242805000Y-118615000D01*
X242805000Y-117415000D01*
X241705000Y-117415000D01*
G36*
X243605000Y-117415000D02*
X243605000Y-118615000D01*
X244705000Y-118615000D01*
X244705000Y-117415000D01*
X243605000Y-117415000D01*
G37*
X243605000Y-117415000D02*
X243605000Y-118615000D01*
X244705000Y-118615000D01*
X244705000Y-117415000D01*
X243605000Y-117415000D01*
G36*
X243605000Y-121465000D02*
X243605000Y-122665000D01*
X244705000Y-122665000D01*
X244705000Y-121465000D01*
X243605000Y-121465000D01*
G37*
X243605000Y-121465000D02*
X243605000Y-122665000D01*
X244705000Y-122665000D01*
X244705000Y-121465000D01*
X243605000Y-121465000D01*
G36*
X241705000Y-121415000D02*
X241705000Y-122665000D01*
X242805000Y-122665000D01*
X242805000Y-121415000D01*
X241705000Y-121415000D01*
G37*
X241705000Y-121415000D02*
X241705000Y-122665000D01*
X242805000Y-122665000D01*
X242805000Y-121415000D01*
X241705000Y-121415000D01*
G36*
X241705000Y-133925000D02*
X241705000Y-135125000D01*
X242805000Y-135125000D01*
X242805000Y-133925000D01*
X241705000Y-133925000D01*
G37*
X241705000Y-133925000D02*
X241705000Y-135125000D01*
X242805000Y-135125000D01*
X242805000Y-133925000D01*
X241705000Y-133925000D01*
G36*
X243605000Y-133925000D02*
X243605000Y-135125000D01*
X244705000Y-135125000D01*
X244705000Y-133925000D01*
X243605000Y-133925000D01*
G37*
X243605000Y-133925000D02*
X243605000Y-135125000D01*
X244705000Y-135125000D01*
X244705000Y-133925000D01*
X243605000Y-133925000D01*
G36*
X243605000Y-137975000D02*
X243605000Y-139175000D01*
X244705000Y-139175000D01*
X244705000Y-137975000D01*
X243605000Y-137975000D01*
G37*
X243605000Y-137975000D02*
X243605000Y-139175000D01*
X244705000Y-139175000D01*
X244705000Y-137975000D01*
X243605000Y-137975000D01*
G36*
X241705000Y-137925000D02*
X241705000Y-139175000D01*
X242805000Y-139175000D01*
X242805000Y-137925000D01*
X241705000Y-137925000D01*
G37*
X241705000Y-137925000D02*
X241705000Y-139175000D01*
X242805000Y-139175000D01*
X242805000Y-137925000D01*
X241705000Y-137925000D01*
G36*
X241705000Y-67250000D02*
X241705000Y-68450000D01*
X242805000Y-68450000D01*
X242805000Y-67250000D01*
X241705000Y-67250000D01*
G37*
X241705000Y-67250000D02*
X241705000Y-68450000D01*
X242805000Y-68450000D01*
X242805000Y-67250000D01*
X241705000Y-67250000D01*
G36*
X243605000Y-67250000D02*
X243605000Y-68450000D01*
X244705000Y-68450000D01*
X244705000Y-67250000D01*
X243605000Y-67250000D01*
G37*
X243605000Y-67250000D02*
X243605000Y-68450000D01*
X244705000Y-68450000D01*
X244705000Y-67250000D01*
X243605000Y-67250000D01*
G36*
X243605000Y-71300000D02*
X243605000Y-72500000D01*
X244705000Y-72500000D01*
X244705000Y-71300000D01*
X243605000Y-71300000D01*
G37*
X243605000Y-71300000D02*
X243605000Y-72500000D01*
X244705000Y-72500000D01*
X244705000Y-71300000D01*
X243605000Y-71300000D01*
G36*
X241705000Y-71250000D02*
X241705000Y-72500000D01*
X242805000Y-72500000D01*
X242805000Y-71250000D01*
X241705000Y-71250000D01*
G37*
X241705000Y-71250000D02*
X241705000Y-72500000D01*
X242805000Y-72500000D01*
X242805000Y-71250000D01*
X241705000Y-71250000D01*
G36*
X241705000Y-50740000D02*
X241705000Y-51940000D01*
X242805000Y-51940000D01*
X242805000Y-50740000D01*
X241705000Y-50740000D01*
G37*
X241705000Y-50740000D02*
X241705000Y-51940000D01*
X242805000Y-51940000D01*
X242805000Y-50740000D01*
X241705000Y-50740000D01*
G36*
X243605000Y-50740000D02*
X243605000Y-51940000D01*
X244705000Y-51940000D01*
X244705000Y-50740000D01*
X243605000Y-50740000D01*
G37*
X243605000Y-50740000D02*
X243605000Y-51940000D01*
X244705000Y-51940000D01*
X244705000Y-50740000D01*
X243605000Y-50740000D01*
G36*
X243605000Y-54790000D02*
X243605000Y-55990000D01*
X244705000Y-55990000D01*
X244705000Y-54790000D01*
X243605000Y-54790000D01*
G37*
X243605000Y-54790000D02*
X243605000Y-55990000D01*
X244705000Y-55990000D01*
X244705000Y-54790000D01*
X243605000Y-54790000D01*
G36*
X241705000Y-54740000D02*
X241705000Y-55990000D01*
X242805000Y-55990000D01*
X242805000Y-54740000D01*
X241705000Y-54740000D01*
G37*
X241705000Y-54740000D02*
X241705000Y-55990000D01*
X242805000Y-55990000D01*
X242805000Y-54740000D01*
X241705000Y-54740000D01*
D13*
X242265000Y-84350000D03*
X244175000Y-84350000D03*
X242265000Y-88400000D03*
X244175000Y-88400000D03*
X242265000Y-101495000D03*
X244175000Y-101495000D03*
X242265000Y-105545000D03*
X244175000Y-105545000D03*
X242265000Y-118005000D03*
X244175000Y-118005000D03*
X242265000Y-122055000D03*
X244175000Y-122055000D03*
X242265000Y-134515000D03*
X244175000Y-134515000D03*
X242265000Y-138565000D03*
X244175000Y-138565000D03*
X242265000Y-67840000D03*
X244175000Y-67840000D03*
X242265000Y-71890000D03*
X244175000Y-71890000D03*
X242265000Y-51330000D03*
X244175000Y-51330000D03*
X242265000Y-55380000D03*
X244175000Y-55380000D03*
D14*
X239935000Y-48260000D03*
X243935000Y-48260000D03*
D15*
X238125000Y-51340000D03*
X238125000Y-55340000D03*
D14*
X239935000Y-58420000D03*
X243935000Y-58420000D03*
X239935000Y-64770000D03*
X243935000Y-64770000D03*
D15*
X238125000Y-67850000D03*
X238125000Y-71850000D03*
D14*
X239935000Y-74930000D03*
X243935000Y-74930000D03*
X239935000Y-81280000D03*
X243935000Y-81280000D03*
D15*
X238125000Y-84360000D03*
X238125000Y-88360000D03*
D14*
X239935000Y-91440000D03*
X243935000Y-91440000D03*
X239935000Y-98425000D03*
X243935000Y-98425000D03*
D15*
X238125000Y-101505000D03*
X238125000Y-105505000D03*
D14*
X239935000Y-108585000D03*
X243935000Y-108585000D03*
X239935000Y-114935000D03*
X243935000Y-114935000D03*
D15*
X238125000Y-118015000D03*
X238125000Y-122015000D03*
D14*
X239935000Y-125095000D03*
X243935000Y-125095000D03*
X239935000Y-131445000D03*
X243935000Y-131445000D03*
D15*
X238125000Y-134525000D03*
X238125000Y-138525000D03*
D14*
X239935000Y-141605000D03*
X243935000Y-141605000D03*
D15*
X69000000Y-97000000D03*
X69000000Y-93000000D03*
M02*
