M48
;DRILL file {KiCad 4.0.7-e2-6376~58~ubuntu14.04.1} date Mon Sep 18 21:38:58 2017
;FORMAT={-:-/ absolute / metric / decimal}
FMAT,2
METRIC,TZ
T1C0.330
T2C0.686
T3C0.800
T4C0.813
T5C1.000
T6C1.100
T7C1.320
T8C2.200
%
G90
G05
M71
T1
X84.Y-98.
T2
X126.Y-94.
X126.Y-101.
X133.Y-115.
X146.Y-115.
X152.Y-80.
X235.204Y-94.996
X237.49Y-48.26
X237.49Y-64.77
X237.49Y-81.28
X237.49Y-99.06
X237.49Y-115.57
X237.49Y-132.08
T3
X65.532Y-87.376
X65.532Y-89.916
X65.532Y-92.456
X65.532Y-94.996
X65.532Y-97.536
X65.532Y-100.076
X65.532Y-102.616
X73.152Y-87.376
X73.152Y-89.916
X73.152Y-92.456
X73.152Y-94.996
X73.152Y-97.536
X73.152Y-100.076
X73.152Y-102.616
T4
X138.684Y-117.348
X138.684Y-122.428
X138.684Y-127.
X138.684Y-132.08
X146.304Y-117.348
X146.304Y-122.428
X146.304Y-127.
X146.304Y-132.08
T5
X131.Y-110.
X133.54Y-110.
X136.08Y-110.
X138.Y-62.
X138.62Y-110.
X140.54Y-62.
X143.08Y-62.
X152.4Y-117.602
X154.178Y-82.55
X154.94Y-117.602
X156.718Y-82.55
X157.48Y-117.602
X159.258Y-82.55
X160.02Y-117.602
X161.29Y-109.982
X161.798Y-82.55
X163.83Y-109.982
X166.37Y-109.982
X168.91Y-109.982
X171.45Y-109.982
X173.99Y-109.982
X176.53Y-109.982
X179.07Y-86.106
X179.07Y-88.646
X179.07Y-91.186
X179.07Y-93.726
X179.07Y-96.266
X179.07Y-98.806
X179.07Y-101.346
X179.07Y-103.886
X179.07Y-109.982
X232.41Y-86.106
X232.41Y-88.646
X232.41Y-91.186
X232.41Y-93.726
X232.41Y-96.266
X232.41Y-98.806
X232.41Y-101.346
X232.41Y-103.886
T6
X131.445Y-87.63
X131.445Y-102.87
X133.985Y-87.63
X133.985Y-102.87
X136.525Y-87.63
X136.525Y-102.87
X139.065Y-87.63
X139.065Y-102.87
X141.605Y-87.63
X141.605Y-102.87
X144.145Y-87.63
X144.145Y-102.87
X146.685Y-87.63
X146.685Y-102.87
X149.225Y-87.63
X149.225Y-102.87
X151.765Y-87.63
X151.765Y-102.87
X154.305Y-87.63
X154.305Y-102.87
X156.845Y-87.63
X156.845Y-102.87
X159.385Y-87.63
X159.385Y-102.87
X161.925Y-87.63
X161.925Y-102.87
X164.465Y-87.63
X164.465Y-102.87
X167.005Y-87.63
X167.005Y-102.87
T7
X54.102Y-87.63
X54.69Y-102.362
X59.102Y-87.63
X59.69Y-102.362
X142.Y-70.
X142.Y-75.
T8
X55.Y-58.
X55.Y-132.
X64.Y-58.
X64.Y-132.
X73.Y-58.
X73.Y-132.
X82.Y-58.
X82.Y-132.
X91.Y-58.
X91.Y-132.
X100.Y-58.
X100.Y-132.
X109.Y-58.
X109.Y-132.
X118.Y-58.
X118.Y-132.
X127.Y-58.
X127.Y-132.
X185.674Y-80.772
X185.674Y-109.22
X232.664Y-80.772
X232.664Y-109.22
T0
M30
