G04 #@! TF.FileFunction,Copper,L1,Top,Signal*
%FSLAX46Y46*%
G04 Gerber Fmt 4.6, Leading zero omitted, Abs format (unit mm)*
G04 Created by KiCad (PCBNEW 4.0.7-e2-6376~58~ubuntu14.04.1) date Tue Oct  3 22:56:20 2017*
%MOMM*%
%LPD*%
G01*
G04 APERTURE LIST*
%ADD10C,0.100000*%
%ADD11C,3.800000*%
%ADD12R,2.500000X4.000000*%
%ADD13R,1.700000X2.000000*%
%ADD14R,3.960000X1.980000*%
%ADD15O,3.960000X1.980000*%
%ADD16R,1.980000X3.960000*%
%ADD17O,1.980000X3.960000*%
%ADD18R,1.700000X1.700000*%
%ADD19O,1.700000X1.700000*%
%ADD20R,2.000000X2.500000*%
%ADD21R,2.500000X2.000000*%
%ADD22C,1.397000*%
%ADD23C,1.700000*%
%ADD24R,2.400000X1.600000*%
%ADD25O,2.400000X1.600000*%
%ADD26C,1.193800*%
%ADD27C,0.685800*%
%ADD28C,0.609600*%
%ADD29C,0.152400*%
G04 APERTURE END LIST*
D10*
D11*
X127000000Y-132000000D03*
X109000000Y-132000000D03*
X91000000Y-132000000D03*
X73000000Y-132000000D03*
X118000000Y-58000000D03*
X109000000Y-58000000D03*
X91000000Y-58000000D03*
X82000000Y-58000000D03*
X73000000Y-58000000D03*
D12*
X158000000Y-76050000D03*
X158000000Y-69950000D03*
D13*
X149000000Y-113000000D03*
X149000000Y-109000000D03*
X152000000Y-113000000D03*
X152000000Y-109000000D03*
D14*
X142000000Y-70000000D03*
D15*
X142000000Y-75000000D03*
D16*
X59690000Y-102362000D03*
D17*
X54690000Y-102362000D03*
D16*
X54102000Y-87630000D03*
D17*
X59102000Y-87630000D03*
D18*
X152400000Y-117602000D03*
D19*
X154940000Y-117602000D03*
X157480000Y-117602000D03*
X160020000Y-117602000D03*
D18*
X179070000Y-109982000D03*
D19*
X176530000Y-109982000D03*
X173990000Y-109982000D03*
X171450000Y-109982000D03*
X168910000Y-109982000D03*
X166370000Y-109982000D03*
X163830000Y-109982000D03*
X161290000Y-109982000D03*
D18*
X179070000Y-86106000D03*
D19*
X179070000Y-88646000D03*
X179070000Y-91186000D03*
X179070000Y-93726000D03*
X179070000Y-96266000D03*
X179070000Y-98806000D03*
X179070000Y-101346000D03*
X179070000Y-103886000D03*
D18*
X232410000Y-86106000D03*
D19*
X232410000Y-88646000D03*
X232410000Y-91186000D03*
X232410000Y-93726000D03*
X232410000Y-96266000D03*
X232410000Y-98806000D03*
X232410000Y-101346000D03*
X232410000Y-103886000D03*
D20*
X144812000Y-82550000D03*
X148812000Y-82550000D03*
X137446000Y-82550000D03*
X141446000Y-82550000D03*
D21*
X144272000Y-108744000D03*
X144272000Y-112744000D03*
X156464000Y-108744000D03*
X156464000Y-112744000D03*
X135000000Y-128000000D03*
X135000000Y-132000000D03*
X133000000Y-118000000D03*
X133000000Y-122000000D03*
D22*
X146304000Y-117348000D03*
X146304000Y-122428000D03*
X138684000Y-117348000D03*
X138684000Y-122428000D03*
X146304000Y-127000000D03*
X146304000Y-132080000D03*
X138684000Y-127000000D03*
X138684000Y-132080000D03*
D18*
X131445000Y-102870000D03*
D23*
X133985000Y-102870000D03*
X136525000Y-102870000D03*
X139065000Y-102870000D03*
X141605000Y-102870000D03*
X144145000Y-102870000D03*
X146685000Y-102870000D03*
X149225000Y-102870000D03*
X151765000Y-102870000D03*
X154305000Y-102870000D03*
X156845000Y-102870000D03*
X159385000Y-102870000D03*
X161925000Y-102870000D03*
X164465000Y-102870000D03*
X167005000Y-102870000D03*
X167005000Y-87630000D03*
X164465000Y-87630000D03*
X161925000Y-87630000D03*
X159385000Y-87630000D03*
X156845000Y-87630000D03*
X154305000Y-87630000D03*
X151765000Y-87630000D03*
X149225000Y-87630000D03*
X146685000Y-87630000D03*
X144145000Y-87630000D03*
X141605000Y-87630000D03*
X139065000Y-87630000D03*
X136525000Y-87630000D03*
X133985000Y-87630000D03*
X131445000Y-87630000D03*
D24*
X73152000Y-102616000D03*
D25*
X65532000Y-87376000D03*
X73152000Y-100076000D03*
X65532000Y-89916000D03*
X73152000Y-97536000D03*
X65532000Y-92456000D03*
X73152000Y-94996000D03*
X65532000Y-94996000D03*
X73152000Y-92456000D03*
X65532000Y-97536000D03*
X73152000Y-89916000D03*
X65532000Y-100076000D03*
X73152000Y-87376000D03*
X65532000Y-102616000D03*
D11*
X232664000Y-80772000D03*
X232664000Y-109220000D03*
X185674000Y-80772000D03*
X185674000Y-109220000D03*
D18*
X161798000Y-82550000D03*
D19*
X159258000Y-82550000D03*
X156718000Y-82550000D03*
X154178000Y-82550000D03*
D18*
X131000000Y-110000000D03*
D19*
X133540000Y-110000000D03*
X136080000Y-110000000D03*
X138620000Y-110000000D03*
D18*
X138000000Y-62000000D03*
D19*
X140540000Y-62000000D03*
X143080000Y-62000000D03*
D11*
X55000000Y-58000000D03*
X64000000Y-58000000D03*
X100000000Y-58000000D03*
X127000000Y-58000000D03*
X55000000Y-132000000D03*
X64000000Y-132000000D03*
X82000000Y-132000000D03*
X100000000Y-132000000D03*
X118000000Y-132000000D03*
D26*
X133000000Y-115000000D03*
X146000000Y-115000000D03*
X152000000Y-80000000D03*
X235204000Y-94996000D03*
X126000000Y-101000000D03*
X126000000Y-94000000D03*
X237490000Y-132080000D03*
X237490000Y-115570000D03*
X237490000Y-99060000D03*
X237490000Y-81280000D03*
X237490000Y-64770000D03*
X237490000Y-48260000D03*
D27*
X84000000Y-98000000D03*
D28*
X135000000Y-82550000D02*
X71450000Y-82550000D01*
X66924000Y-100076000D02*
X65532000Y-100076000D01*
X69000000Y-98000000D02*
X66924000Y-100076000D01*
X69000000Y-85000000D02*
X69000000Y-98000000D01*
X71450000Y-82550000D02*
X69000000Y-85000000D01*
X137446000Y-82550000D02*
X135000000Y-82550000D01*
X135000000Y-82550000D02*
X134450000Y-82550000D01*
X131445000Y-85555000D02*
X131445000Y-87630000D01*
X134450000Y-82550000D02*
X131445000Y-85555000D01*
X158000000Y-76050000D02*
X153950000Y-76050000D01*
X151000000Y-79000000D02*
X137000000Y-79000000D01*
X153950000Y-76050000D02*
X151000000Y-79000000D01*
X140540000Y-62000000D02*
X140540000Y-64460000D01*
X137000000Y-68000000D02*
X137000000Y-79000000D01*
X137000000Y-79000000D02*
X137000000Y-82104000D01*
X140540000Y-64460000D02*
X137000000Y-68000000D01*
X137000000Y-82104000D02*
X137446000Y-82550000D01*
X135000000Y-128000000D02*
X133000000Y-128000000D01*
X131000000Y-118000000D02*
X133000000Y-118000000D01*
X130000000Y-119000000D02*
X131000000Y-118000000D01*
X130000000Y-125000000D02*
X130000000Y-119000000D01*
X133000000Y-128000000D02*
X130000000Y-125000000D01*
X132000000Y-118000000D02*
X133000000Y-118000000D01*
X149000000Y-113000000D02*
X149000000Y-114000000D01*
X149000000Y-114000000D02*
X148000000Y-115000000D01*
X148000000Y-115000000D02*
X146000000Y-115000000D01*
X136080000Y-110000000D02*
X136080000Y-111920000D01*
X133000000Y-115000000D02*
X133000000Y-118000000D01*
X136080000Y-111920000D02*
X133000000Y-115000000D01*
X73152000Y-102616000D02*
X65532000Y-102616000D01*
X149000000Y-113000000D02*
X152000000Y-113000000D01*
X125384000Y-102616000D02*
X126384000Y-102616000D01*
X123384000Y-102616000D02*
X125384000Y-102616000D01*
X73152000Y-102616000D02*
X123384000Y-102616000D01*
X128000000Y-101000000D02*
X139065000Y-101000000D01*
X126384000Y-102616000D02*
X128000000Y-101000000D01*
X139065000Y-102870000D02*
X139065000Y-101000000D01*
X139065000Y-101000000D02*
X139065000Y-98065000D01*
X133985000Y-92985000D02*
X133985000Y-87630000D01*
X139065000Y-98065000D02*
X133985000Y-92985000D01*
X179070000Y-109982000D02*
X179070000Y-111930000D01*
X155880000Y-115000000D02*
X154940000Y-115940000D01*
X159000000Y-115000000D02*
X155880000Y-115000000D01*
X160000000Y-114000000D02*
X159000000Y-115000000D01*
X177000000Y-114000000D02*
X160000000Y-114000000D01*
X179070000Y-111930000D02*
X177000000Y-114000000D01*
X154940000Y-117602000D02*
X154940000Y-115940000D01*
X154940000Y-115940000D02*
X152000000Y-113000000D01*
X139065000Y-102870000D02*
X139065000Y-103935000D01*
X136080000Y-106920000D02*
X136080000Y-110000000D01*
X139065000Y-103935000D02*
X136080000Y-106920000D01*
X155000000Y-80000000D02*
X152000000Y-80000000D01*
X154178000Y-82550000D02*
X154178000Y-80822000D01*
X160950000Y-69950000D02*
X158000000Y-69950000D01*
X163000000Y-72000000D02*
X160950000Y-69950000D01*
X163000000Y-78000000D02*
X163000000Y-72000000D01*
X161000000Y-80000000D02*
X163000000Y-78000000D01*
X155000000Y-80000000D02*
X161000000Y-80000000D01*
X154178000Y-80822000D02*
X155000000Y-80000000D01*
X158000000Y-69950000D02*
X142050000Y-69950000D01*
X142050000Y-69950000D02*
X142000000Y-70000000D01*
X154178000Y-82550000D02*
X148812000Y-82550000D01*
X233934000Y-103632000D02*
X232664000Y-103632000D01*
X235204000Y-102362000D02*
X233934000Y-103632000D01*
X235204000Y-94996000D02*
X235204000Y-102362000D01*
X232664000Y-103632000D02*
X232410000Y-103886000D01*
D29*
X144272000Y-112744000D02*
X146256000Y-112744000D01*
X148000000Y-109000000D02*
X149000000Y-109000000D01*
X147000000Y-110000000D02*
X148000000Y-109000000D01*
X147000000Y-112000000D02*
X147000000Y-110000000D01*
X146256000Y-112744000D02*
X147000000Y-112000000D01*
X152000000Y-109000000D02*
X153000000Y-109000000D01*
X154744000Y-112744000D02*
X156464000Y-112744000D01*
X154000000Y-112000000D02*
X154744000Y-112744000D01*
X154000000Y-110000000D02*
X154000000Y-112000000D01*
X153000000Y-109000000D02*
X154000000Y-110000000D01*
D28*
X126000000Y-94000000D02*
X126000000Y-101000000D01*
X138620000Y-110000000D02*
X138620000Y-117284000D01*
X138620000Y-117284000D02*
X138684000Y-117348000D01*
X179070000Y-86106000D02*
X179070000Y-84328000D01*
X177292000Y-82550000D02*
X161798000Y-82550000D01*
X179070000Y-84328000D02*
X177292000Y-82550000D01*
X161798000Y-82550000D02*
X161798000Y-87503000D01*
X161798000Y-87503000D02*
X161925000Y-87630000D01*
X232410000Y-86106000D02*
X237490000Y-86106000D01*
X237490000Y-115570000D02*
X237490000Y-132080000D01*
X237490000Y-99060000D02*
X237490000Y-115570000D01*
X237490000Y-81280000D02*
X237490000Y-86106000D01*
X237490000Y-86106000D02*
X237490000Y-99060000D01*
X237490000Y-64770000D02*
X237490000Y-81280000D01*
X237490000Y-48260000D02*
X237490000Y-64770000D01*
D29*
X159258000Y-82550000D02*
X159258000Y-84074000D01*
X144145000Y-85471000D02*
X144145000Y-87630000D01*
X144780000Y-84836000D02*
X144145000Y-85471000D01*
X158496000Y-84836000D02*
X144780000Y-84836000D01*
X159258000Y-84074000D02*
X158496000Y-84836000D01*
D28*
X65532000Y-97536000D02*
X61464000Y-97536000D01*
X59690000Y-99310000D02*
X59690000Y-102362000D01*
X61464000Y-97536000D02*
X59690000Y-99310000D01*
X65532000Y-94996000D02*
X57004000Y-94996000D01*
X54690000Y-97310000D02*
X54690000Y-102362000D01*
X57004000Y-94996000D02*
X54690000Y-97310000D01*
X65532000Y-92456000D02*
X56456000Y-92456000D01*
X54102000Y-90102000D02*
X54102000Y-87630000D01*
X56456000Y-92456000D02*
X54102000Y-90102000D01*
X65532000Y-89916000D02*
X60084000Y-89916000D01*
X60084000Y-89916000D02*
X59102000Y-88934000D01*
X59102000Y-88934000D02*
X59102000Y-87630000D01*
D29*
X131445000Y-102870000D02*
X131445000Y-104555000D01*
X131000000Y-105000000D02*
X131000000Y-110000000D01*
X131445000Y-104555000D02*
X131000000Y-105000000D01*
X133985000Y-102870000D02*
X133985000Y-104985000D01*
X133540000Y-105430000D02*
X133540000Y-110000000D01*
X133985000Y-104985000D02*
X133540000Y-105430000D01*
X138684000Y-122428000D02*
X133428000Y-122428000D01*
X133428000Y-122428000D02*
X133000000Y-122000000D01*
X146304000Y-122428000D02*
X152654000Y-122428000D01*
X152654000Y-122428000D02*
X157480000Y-117602000D01*
X141605000Y-102870000D02*
X141605000Y-105395000D01*
X141000000Y-120112000D02*
X138684000Y-122428000D01*
X141000000Y-106000000D02*
X141000000Y-120112000D01*
X141605000Y-105395000D02*
X141000000Y-106000000D01*
X138684000Y-132080000D02*
X135080000Y-132080000D01*
X135080000Y-132080000D02*
X135000000Y-132000000D01*
X160020000Y-117602000D02*
X160020000Y-118364000D01*
X160020000Y-118364000D02*
X146304000Y-132080000D01*
X144145000Y-102870000D02*
X144145000Y-104855000D01*
X142000000Y-128764000D02*
X138684000Y-132080000D01*
X142000000Y-107000000D02*
X142000000Y-128764000D01*
X144145000Y-104855000D02*
X142000000Y-107000000D01*
X138684000Y-132080000D02*
X146304000Y-132080000D01*
X179070000Y-88646000D02*
X177292000Y-88646000D01*
X160020000Y-89916000D02*
X159385000Y-89281000D01*
X159385000Y-89281000D02*
X159385000Y-87630000D01*
X160782000Y-90678000D02*
X160020000Y-89916000D01*
X176784000Y-90678000D02*
X160782000Y-90678000D01*
X177038000Y-90424000D02*
X176784000Y-90678000D01*
X177038000Y-88900000D02*
X177038000Y-90424000D01*
X177292000Y-88646000D02*
X177038000Y-88900000D01*
X179070000Y-91186000D02*
X158750000Y-91186000D01*
X156845000Y-89281000D02*
X156845000Y-87630000D01*
X158750000Y-91186000D02*
X156845000Y-89281000D01*
X177038000Y-92202000D02*
X176530000Y-91694000D01*
X156972000Y-91694000D02*
X154305000Y-89027000D01*
X154305000Y-87630000D02*
X154305000Y-89027000D01*
X177292000Y-93726000D02*
X177038000Y-93472000D01*
X177038000Y-93472000D02*
X177038000Y-92202000D01*
X177292000Y-93726000D02*
X179070000Y-93726000D01*
X176530000Y-91694000D02*
X156972000Y-91694000D01*
X179070000Y-96266000D02*
X177038000Y-96266000D01*
X151765000Y-88773000D02*
X151765000Y-87630000D01*
X155194000Y-92202000D02*
X151765000Y-88773000D01*
X176022000Y-92202000D02*
X155194000Y-92202000D01*
X176530000Y-92710000D02*
X176022000Y-92202000D01*
X176530000Y-95758000D02*
X176530000Y-92710000D01*
X177038000Y-96266000D02*
X176530000Y-95758000D01*
X179070000Y-98806000D02*
X177292000Y-98806000D01*
X176022000Y-97028000D02*
X176022000Y-93218000D01*
X176022000Y-93218000D02*
X175514000Y-92710000D01*
X175514000Y-92710000D02*
X152654000Y-92710000D01*
X152654000Y-92710000D02*
X149225000Y-89281000D01*
X149225000Y-89281000D02*
X149225000Y-87630000D01*
X176022000Y-97536000D02*
X176022000Y-97028000D01*
X177292000Y-98806000D02*
X176022000Y-97536000D01*
X179070000Y-101346000D02*
X177292000Y-101346000D01*
X146685000Y-89027000D02*
X146685000Y-87630000D01*
X150876000Y-93218000D02*
X146685000Y-89027000D01*
X175006000Y-93218000D02*
X150876000Y-93218000D01*
X175514000Y-93726000D02*
X175006000Y-93218000D01*
X175514000Y-99568000D02*
X175514000Y-93726000D01*
X177292000Y-101346000D02*
X175514000Y-99568000D01*
X141446000Y-82550000D02*
X141446000Y-87471000D01*
X141446000Y-87471000D02*
X141605000Y-87630000D01*
X144812000Y-82550000D02*
X141446000Y-82550000D01*
X144272000Y-108744000D02*
X144272000Y-106728000D01*
X146685000Y-104315000D02*
X146685000Y-102870000D01*
X144272000Y-106728000D02*
X146685000Y-104315000D01*
X156464000Y-108744000D02*
X156464000Y-107536000D01*
X159385000Y-104615000D02*
X159385000Y-102870000D01*
X156464000Y-107536000D02*
X159385000Y-104615000D01*
X79000000Y-93000000D02*
X73696000Y-93000000D01*
X84000000Y-98000000D02*
X79000000Y-93000000D01*
X73696000Y-93000000D02*
X73152000Y-92456000D01*
M02*
